<?xml version="1.0" encoding="UTF-8" standalone="no"?>
<svg
   version="1.1"
   width="362"
   height="208"
   id="svg303"
   sodipodi:docname="Bungee-Toe.svg"
   inkscape:version="1.2.2 (b0a8486541, 2022-12-01)"
   xmlns:inkscape="http://www.inkscape.org/namespaces/inkscape"
   xmlns:sodipodi="http://sodipodi.sourceforge.net/DTD/sodipodi-0.dtd"
   xmlns:xlink="http://www.w3.org/1999/xlink"
   xmlns="http://www.w3.org/2000/svg"
   xmlns:svg="http://www.w3.org/2000/svg">
  <sodipodi:namedview
     id="namedview305"
     pagecolor="#ffffff"
     bordercolor="#000000"
     borderopacity="0.25"
     inkscape:showpageshadow="2"
     inkscape:pageopacity="0.0"
     inkscape:pagecheckerboard="0"
     inkscape:deskcolor="#d1d1d1"
     showgrid="false"
     inkscape:zoom="3.6187845"
     inkscape:cx="181"
     inkscape:cy="104.31679"
     inkscape:window-width="2486"
     inkscape:window-height="1376"
     inkscape:window-x="0"
     inkscape:window-y="0"
     inkscape:window-maximized="1"
     inkscape:current-layer="svg303" />
  <defs
     id="defs281">
    <path
       id="shade-notdef"
       d="M735 -159C749 -159 760 -155 766 -149L896 -41C905 -33 910 -22 910 -4V724C910 756 896 770 864 770H136C122 770 111 767 104 761L-25 652C-34 644 -39 633 -39 615V-113C-39 -145 -25 -159 7 -159ZM711 591V20H160V591Z" />
    <path
       id="shade-e10a"
       d="M429 -119C443 -119 454 -115 460 -109L590 -1C599 7 604 18 604 36V153C604 185 590 199 558 199H421L510 274C519 282 524 293 524 311V418C524 440 518 453 505 459L590 530C599 538 604 549 604 567V684C604 716 590 730 558 730H304C212 730 150 711 111 678L-18 569C-64 531 -81 474 -81 406V125C-81 -1 -23 -119 175 -119ZM310 747ZM310 0Z" />
    <path
       id="shade-54"
       d="M280 -119C294 -119 305 -115 311 -109L441 -1C450 7 455 18 455 36V408H463C477 408 488 412 494 418L624 526C633 534 638 545 638 563V684C638 716 624 730 592 730H64C50 730 39 727 32 721L-97 612C-106 604 -111 593 -111 575V454C-111 422 -97 408 -65 408H72V-73C72 -105 86 -119 118 -119Z" />
    <path
       id="shade-6f"
       d="M500 -71 629 37C674 75 689 127 689 189V530C689 656 631 745 369 745C235 745 156 722 109 682L-21 574C-66 536 -81 483 -81 421V110C-81 -16 -22 -134 240 -134C373 -134 453 -111 500 -71ZM295 225V414C310 408 314 398 314 385V195C299 202 295 212 295 225Z" />
    <path
       id="regular-notdef"
       d="M900 -4V724C900 749 889 760 864 760H136C111 760 100 749 100 724V-4C100 -29 111 -40 136 -40H864C889 -40 900 -29 900 -4ZM850 10H150V710H850Z" />
    <path
       id="regular-e10a"
       d="M594 36V153C594 178 583 189 558 189H337C285 189 276 209 276 237V275H478C503 275 514 286 514 311V418C514 444 503 454 478 454H276V481C276 507 285 531 337 531H558C583 531 594 542 594 567V684C594 709 583 720 558 720H304C115 720 58 637 58 515V204C58 83 115 0 304 0H558C583 0 594 11 594 36ZM310 747ZM310 0Z" />
    <path
       id="regular-54"
       d="M409 0C434 0 445 11 445 36V527H592C617 527 628 538 628 563V684C628 709 617 720 592 720H64C39 720 28 709 28 684V563C28 538 39 527 64 527H211V36C211 11 222 0 247 0Z" />
    <path
       id="regular-6f"
       d="M679 189V530C679 652 619 735 369 735C119 735 58 652 58 530V189C58 67 119 -15 369 -15C619 -15 679 67 679 189ZM285 225V494C285 520 297 540 369 540C442 540 453 520 453 494V225C453 198 442 178 369 178C297 178 285 198 285 225Z" />
    <path
       id="inline-notdef"
       d="M120 -20H880V740H120ZM870 -10H130V730H870Z" />
    <path
       id="inline-e10a"
       d="M504 100H322C202 100 172 132 172 219V359H434V369H172V499C172 588 204 620 322 620H504V630H322C194 630 162 594 162 499V219C162 126 192 90 322 90H504ZM310 747ZM310 0Z" />
    <path
       id="inline-54"
       d="M323 90H333V620H538V630H118V620H323Z" />
    <path
       id="inline-6f"
       d="M570 212V507C570 588 524 642 367 642C210 642 166 588 166 507V212C166 131 210 77 367 77C524 77 570 131 570 212ZM176 212V507C176 582 218 632 367 632C516 632 560 582 560 507V212C560 137 516 87 367 87C218 87 176 137 176 212Z" />
  </defs>
  <!-- Text: Toe (3 bytes) -->
  <!-- T -->
  <use
     transform="translate(37.76 150.08) scale(0.144 -0.144)"
     xlink:href="#shade-54"
     style="stroke:none;fill:#090400"
     id="use285" />
  <!-- o -->
  <use
     transform="translate(131.504 150.08) scale(0.144 -0.144)"
     xlink:href="#shade-6f"
     style="stroke:none;fill:#090400"
     id="use287" />
  <!-- e -->
  <use
     transform="translate(237.632 150.08) scale(0.144 -0.144)"
     xlink:href="#shade-e10a"
     style="stroke:none;fill:#090400"
     id="use289" />
  <!-- T -->
  <use
     transform="translate(37.76 150.08) scale(0.144 -0.144)"
     xlink:href="#regular-54"
     style="stroke:none;fill:#feedd6"
     id="use291" />
  <!-- o -->
  <use
     transform="translate(131.504 150.08) scale(0.144 -0.144)"
     xlink:href="#regular-6f"
     style="stroke:none;fill:#feedd6"
     id="use293" />
  <!-- e -->
  <use
     transform="translate(237.632 150.08) scale(0.144 -0.144)"
     xlink:href="#regular-e10a"
     style="stroke:none;fill:#feedd6"
     id="use295" />
  <!-- T -->
  <use
     transform="translate(37.76 150.08) scale(0.144 -0.144)"
     xlink:href="#inline-54"
     style="stroke:none;fill:#000000"
     id="use297" />
  <!-- o -->
  <use
     transform="translate(131.504 150.08) scale(0.144 -0.144)"
     xlink:href="#inline-6f"
     style="stroke:none;fill:#000000"
     id="use299" />
  <!-- e -->
  <use
     transform="translate(237.632 150.08) scale(0.144 -0.144)"
     xlink:href="#inline-e10a"
     style="stroke:none;fill:#000000"
     id="use301" />
</svg>
