<svg id="eibVzO26K3U1" xmlns="http://www.w3.org/2000/svg" xmlns:xlink="http://www.w3.org/1999/xlink" viewBox="0 0 300 40" shape-rendering="geometricPrecision" text-rendering="geometricPrecision"><g transform="translate(-.00005-.000036)"><rect width="300" height="4.470621" rx="0" ry="0" transform="matrix(1 0 0 1.405304 0.00005 16.858749)" fill="#000205" stroke-width="0"/><rect width="6.069619" height="36.13" rx="0" ry="0" transform="matrix(.98853 0 0 1.107113 0.00005 0.000044)" stroke-width="0"/><rect width="6.069619" height="36.13" rx="0" ry="0" transform="matrix(.98853 0 0 1.107113 73.5 0.000044)" stroke-width="0"/><rect width="6.069619" height="36.13" rx="0" ry="0" transform="matrix(.98853 0 0 1.107113 147 0.000044)" stroke-width="0"/><rect width="6.069619" height="36.13" rx="0" ry="0" transform="matrix(.98853 0 0 1.107113 220.5 0.000044)" stroke-width="0"/><rect width="6.069619" height="36.13" rx="0" ry="0" transform="matrix(.98853 0 0 1.107113 294 0.000044)" stroke-width="0"/></g></svg>
